<svg xmlns="http://www.w3.org/2000/svg" viewBox="0 0 84.78 40.4"><defs><style>.a,.b{fill:none;stroke:#000;}.a{stroke-linecap:round;stroke-linejoin:round;stroke-width:0.5px;}.b{stroke-miterlimit:10;}</style></defs><title>observer</title><path d="M97.39,23.38c2.44,1.86,3.67,5.51,3.56,8.44,0,.26-.06,1.4-.25,2.87a23.33,23.33,0,0,0-.38,2.94,8.73,8.73,0,0,0,.69,3.19c1,2.35,2.77,3,2.48,3.77s-1.67.07-2.83.85c-.84.57-1.24,1.64-1.4,6.35s.16,6.4-1.08,8.25a5,5,0,0,1-2.06,1.84c-2.33,1-5.14-.32-5.11-.79,0-.26.88-.44,1.44-.46.85,0,1.11.29,1.44.21,1-.25.87-3.78,1-8.11.22-5.51.69-6.66,1.59-7.37.71-.57,1.91-1,1.89-1.8,0-.39-.32-.54-.73-1.27A7,7,0,0,1,97,40.4a14,14,0,0,1-.41-4c.09-2,.56-2,.7-3.79.13-1.54-.49-3.41-1.75-7.15a3.59,3.59,0,0,0-1.27-2c-.72-.5-1.46-.45-1.46-.64s1.13-.58,2.25-.44A4.62,4.62,0,0,1,97.39,23.38Z" transform="translate(-18.99 -22.1)"/><path d="M74.38,52.32c1,.73,2.06.17,2.56,1a1.28,1.28,0,0,1-.06,1.43c-.5.56-1.63.2-2.06.07a4.65,4.65,0,0,1-2.32-1.76c-.6-.85-1.47-2.67-.68-3.74,0-.07.49-.66.93-.57C73.59,48.93,73,51.28,74.38,52.32Z" transform="translate(-18.99 -22.1)"/><path d="M76.06,25.69c2.55,1,4.39,3.31,4,3.9-.24.4-1.33-.21-3.54-.27a14.55,14.55,0,0,0-4.87.74c-3.81,1.18-5.16,3.19-5.78,2.71s.15-3.88,2.47-5.83A7.88,7.88,0,0,1,76.06,25.69Z" transform="translate(-18.99 -22.1)"/><path d="M69.44,46.13a8.39,8.39,0,0,0,1.69,8.25,8.48,8.48,0,0,0,8.43,2.56c.28-.07,4.66-1.29,5.94-5.62A8.6,8.6,0,0,0,84,43.88a9,9,0,0,0-5.81-3.25,8.09,8.09,0,0,0-3.19.25A8.42,8.42,0,0,0,69.44,46.13ZM65.5,49.38c.41-1.12,2.7-7.39-.12-12.13a.41.41,0,0,1,0-.09,5.15,5.15,0,0,1,1.36-2.66A10.59,10.59,0,0,1,68.88,33a14.72,14.72,0,0,1,2.56-1.12c1.84-.61,5.71-1.89,8.75-.06a7,7,0,0,1,1.37,1.12,18.61,18.61,0,0,1,4.5,7.19c2.25,6,3.37,9,2.5,11.93A12.15,12.15,0,0,1,80.63,60a11.67,11.67,0,0,1-5.88.25A12,12,0,0,1,69.5,57.5a14,14,0,0,1-3.75-6.12,15.25,15.25,0,0,1-.46-1.46Q65.4,49.67,65.5,49.38Z" transform="translate(-18.99 -22.1)"/><path d="M65.38,37.25c2.82,4.74.53,11,.12,12.13q-.1.28-.21.54c-.91-3.27-.65-6.15-.23-10.86a16.4,16.4,0,0,1,.27-1.9A.41.41,0,0,0,65.38,37.25Z" transform="translate(-18.99 -22.1)"/><path d="M57.63,42.88a42.2,42.2,0,0,1-.71,6.42,18.43,18.43,0,0,1-1-4.67c-.37-3.16-.55-4.89.5-6.69a6.53,6.53,0,0,1,.55-.8l0,.17s.16.57.28,1.19A21,21,0,0,1,57.63,42.88Z" transform="translate(-18.99 -22.1)"/><path d="M64,49.94a2.94,2.94,0,0,0-2.75-3.44,2.72,2.72,0,0,0-2.69,2.25,2.87,2.87,0,0,0,2.82,2.88A2.68,2.68,0,0,0,64,49.94Zm-7.08-.64a42.2,42.2,0,0,0,.71-6.42,21,21,0,0,0-.31-4.38c-.12-.62-.28-1.19-.28-1.19l0-.17a5.62,5.62,0,0,1,1.95-1.58c.12-.05,2.78-1.29,4.94.07a4.52,4.52,0,0,1,1.45,1.53,16.4,16.4,0,0,0-.27,1.9c-.42,4.71-.68,7.59.23,10.86-.67,1.67-1.32,2.36-2.1,2.71a4.48,4.48,0,0,1-3.06.06,4.66,4.66,0,0,1-1.69-1.06A6.53,6.53,0,0,1,56.92,49.3Z" transform="translate(-18.99 -22.1)"/><path d="M28.88,60.84c.32.08.58-.25,1.44-.21.56,0,1.41.2,1.43.46,0,.47-2.78,1.8-5.1.79A4.86,4.86,0,0,1,24.59,60c-1.25-1.85-.93-3.46-1.09-8.25s-.56-5.78-1.39-6.35c-1.16-.78-2.58-.2-2.84-.85s1.45-1.42,2.48-3.77a8.3,8.3,0,0,0,.69-3.19,21.56,21.56,0,0,0-.38-2.94c-.18-1.47-.24-2.61-.24-2.87-.11-2.93,1.12-6.58,3.56-8.44a4.59,4.59,0,0,1,2.31-1c1.13-.14,2.25.2,2.25.44s-.74.14-1.46.64a3.65,3.65,0,0,0-1.27,2c-1.25,3.74-1.88,5.61-1.75,7.15.15,1.75.61,1.74.71,3.79a14.57,14.57,0,0,1-.42,4,6.71,6.71,0,0,1-.66,1.89c-.42.73-.72.88-.73,1.27,0,.79,1.17,1.23,1.89,1.8.89.71,1.37,1.86,1.59,7.37C28,57.06,27.88,60.59,28.88,60.84Z" transform="translate(-18.99 -22.1)"/><path d="M42.38,52.64c1,.73,2.06.17,2.56,1a1.3,1.3,0,0,1-.06,1.44c-.5.56-1.63.2-2.06.06a4.7,4.7,0,0,1-2.32-1.75c-.6-.86-1.47-2.68-.68-3.75,0-.07.49-.66.93-.56C41.59,49.25,41,51.6,42.38,52.64Z" transform="translate(-18.99 -22.1)"/><path d="M56.19,28.38c.8,1.43.88,3.55,0,4.12s-2.38-1.33-5.5-2.18c-4.28-1.18-7.49,1-8,0-.42-.8,1.39-3,3.63-4C49.72,24.73,54.59,25.52,56.19,28.38Z" transform="translate(-18.99 -22.1)"/><path d="M52.25,55a9.08,9.08,0,0,0-6.81-15,8.76,8.76,0,0,0-4.25,1.25,9.35,9.35,0,0,0-4,4.44A9,9,0,0,0,52.25,55Zm3.69-10.37a18.43,18.43,0,0,0,1,4.67,26.06,26.06,0,0,1-.86,3.26,11.62,11.62,0,0,1-.74,1.76,14.16,14.16,0,0,1-1.63,2.31,11.79,11.79,0,0,1-8.94,3.43,11.28,11.28,0,0,1-6.56-2.5A11,11,0,0,1,34.32,47c0-.15.27-.75.74-1.94A78,78,0,0,1,40.44,34.5a5.74,5.74,0,0,1,.88-1.12,7.23,7.23,0,0,1,4-1.82,11.14,11.14,0,0,1,4.66.16,13,13,0,0,1,4.27,1.84A6.57,6.57,0,0,1,56,35.12a8.12,8.12,0,0,1,.87,1.76c0,.09.06.18.08.26a6.53,6.53,0,0,0-.55.8C55.39,39.74,55.57,41.47,55.94,44.63Z" transform="translate(-18.99 -22.1)"/><path class="a" d="M29.94,22.82c0-.24-1.12-.58-2.25-.44a4.59,4.59,0,0,0-2.31,1c-2.44,1.86-3.67,5.51-3.56,8.44,0,.26.06,1.4.24,2.87a21.56,21.56,0,0,1,.38,2.94,8.3,8.3,0,0,1-.69,3.19c-1,2.35-2.76,3-2.48,3.77s1.68.07,2.84.85c.83.57,1.23,1.64,1.39,6.35s-.16,6.4,1.09,8.25a4.86,4.86,0,0,0,2.06,1.84c2.32,1,5.14-.32,5.1-.79,0-.26-.87-.44-1.43-.46-.86,0-1.12.29-1.44.21-1-.25-.87-3.78-1-8.11-.22-5.51-.7-6.66-1.59-7.37-.72-.57-1.91-1-1.89-1.8,0-.39.31-.54.73-1.27a6.71,6.71,0,0,0,.66-1.89,14.57,14.57,0,0,0,.42-4c-.1-2-.56-2-.71-3.79-.13-1.54.5-3.41,1.75-7.15a3.65,3.65,0,0,1,1.27-2C29.2,23,29.94,23,29.94,22.82Z" transform="translate(-18.99 -22.1)"/><path class="a" d="M92.82,22.82c0-.24,1.13-.58,2.25-.44a4.62,4.62,0,0,1,2.32,1c2.44,1.86,3.67,5.51,3.56,8.44,0,.26-.06,1.4-.25,2.87a23.33,23.33,0,0,0-.38,2.94,8.73,8.73,0,0,0,.69,3.19c1,2.35,2.77,3,2.48,3.77s-1.67.07-2.83.85c-.84.57-1.24,1.64-1.4,6.35s.16,6.4-1.08,8.25a5,5,0,0,1-2.06,1.84c-2.33,1-5.14-.32-5.11-.79,0-.26.88-.44,1.44-.46.85,0,1.11.29,1.44.21,1-.25.87-3.78,1-8.11.22-5.51.69-6.66,1.59-7.37.71-.57,1.91-1,1.89-1.8,0-.39-.32-.54-.73-1.27A7,7,0,0,1,97,40.4a14,14,0,0,1-.41-4c.09-2,.56-2,.7-3.79.13-1.54-.49-3.41-1.75-7.15a3.59,3.59,0,0,0-1.27-2C93.56,23,92.82,23,92.82,22.82Z" transform="translate(-18.99 -22.1)"/><path class="b" d="M56.92,49.3a42.2,42.2,0,0,0,.71-6.42,21,21,0,0,0-.31-4.38c-.12-.62-.28-1.19-.28-1.19l0-.17c0-.08-.05-.17-.08-.26A8.12,8.12,0,0,0,56,35.12a6.57,6.57,0,0,0-1.79-1.56A13,13,0,0,0,50,31.72a11.14,11.14,0,0,0-4.66-.16,7.23,7.23,0,0,0-4,1.82,5.74,5.74,0,0,0-.88,1.12,78,78,0,0,0-5.38,10.56c-.47,1.19-.71,1.79-.74,1.94a11,11,0,0,0,3.87,10.56,11.28,11.28,0,0,0,6.56,2.5,11.79,11.79,0,0,0,8.94-3.43,14.16,14.16,0,0,0,1.63-2.31,11.62,11.62,0,0,0,.74-1.76A26.06,26.06,0,0,0,56.92,49.3Z" transform="translate(-18.99 -22.1)"/><path class="b" d="M41.19,41.25A8.76,8.76,0,0,1,45.44,40a9,9,0,1,1-8.25,5.69A9.35,9.35,0,0,1,41.19,41.25Z" transform="translate(-18.99 -22.1)"/><path class="b" d="M65.29,49.92q.1-.26.21-.54c.41-1.12,2.7-7.39-.12-12.13a.41.41,0,0,1,0-.09,4.52,4.52,0,0,0-1.45-1.53c-2.16-1.36-4.82-.12-4.94-.07A5.62,5.62,0,0,0,57,37.14a6.53,6.53,0,0,0-.55.8c-1,1.8-.87,3.53-.5,6.69a18.43,18.43,0,0,0,1,4.67,6.53,6.53,0,0,0,1.52,2.33,4.66,4.66,0,0,0,1.69,1.06,4.48,4.48,0,0,0,3.06-.06C64,52.28,64.62,51.59,65.29,49.92Z" transform="translate(-18.99 -22.1)"/><path class="b" d="M65.29,49.92a15.25,15.25,0,0,0,.46,1.46A14,14,0,0,0,69.5,57.5a12,12,0,0,0,5.25,2.75A11.67,11.67,0,0,0,80.63,60a12.15,12.15,0,0,0,7.93-7.94c.87-3-.25-6-2.5-11.93a18.61,18.61,0,0,0-4.5-7.19,7,7,0,0,0-1.37-1.12c-3-1.83-6.91-.55-8.75.06A14.72,14.72,0,0,0,68.88,33a10.59,10.59,0,0,0-2.19,1.5,5.15,5.15,0,0,0-1.36,2.66,16.4,16.4,0,0,0-.27,1.9C64.64,43.77,64.38,46.65,65.29,49.92Z" transform="translate(-18.99 -22.1)"/><path class="b" d="M65.91,32.77c.62.48,2-1.53,5.78-2.71a14.55,14.55,0,0,1,4.87-.74c2.21.06,3.3.67,3.54.27.35-.59-1.49-2.94-4-3.9a7.88,7.88,0,0,0-7.68,1.25C66.06,28.89,65.19,32.23,65.91,32.77Z" transform="translate(-18.99 -22.1)"/><path class="b" d="M56.19,32.5c.88-.57.8-2.69,0-4.12-1.6-2.86-6.47-3.65-9.87-2.06-2.24,1-4,3.2-3.63,4,.51,1,3.72-1.18,8,0C53.81,31.17,55.18,33.16,56.19,32.5Z" transform="translate(-18.99 -22.1)"/><path class="b" d="M61.25,46.5a2.72,2.72,0,0,0-2.69,2.25,2.87,2.87,0,0,0,2.82,2.88A2.68,2.68,0,0,0,64,49.94,2.94,2.94,0,0,0,61.25,46.5Z" transform="translate(-18.99 -22.1)"/><path class="b" d="M75,40.88a8.35,8.35,0,0,0,4.56,16.06c.28-.07,4.66-1.29,5.94-5.62A8.6,8.6,0,0,0,84,43.88a9,9,0,0,0-5.81-3.25A8.09,8.09,0,0,0,75,40.88Z" transform="translate(-18.99 -22.1)"/><path class="b" d="M72.75,48.75c.84.18.27,2.53,1.63,3.57,1,.73,2.06.17,2.56,1a1.28,1.28,0,0,1-.06,1.43c-.5.56-1.63.2-2.06.07a4.65,4.65,0,0,1-2.32-1.76c-.6-.85-1.47-2.67-.68-3.74C71.86,49.25,72.31,48.66,72.75,48.75Z" transform="translate(-18.99 -22.1)"/><path class="a" d="M40.75,49.08c.84.17.27,2.52,1.63,3.56,1,.73,2.06.17,2.56,1a1.3,1.3,0,0,1-.06,1.44c-.5.56-1.63.2-2.06.06a4.7,4.7,0,0,1-2.32-1.75c-.6-.86-1.47-2.68-.68-3.75C39.86,49.57,40.31,49,40.75,49.08Z" transform="translate(-18.99 -22.1)"/></svg>